<mxfile host="app.diagrams.net" agent="Mozilla/5.0 (Windows NT 10.0; Win64; x64) AppleWebKit/537.36 (KHTML, like Gecko) Chrome/131.0.0.0 Safari/537.36" version="26.0.2">
  <diagram name="Page-1" id="jfeeRn9aOzC34gmz2Z4P">
    <mxGraphModel dx="1323" dy="1912" grid="1" gridSize="10" guides="1" tooltips="1" connect="1" arrows="1" fold="1" page="1" pageScale="1" pageWidth="827" pageHeight="1169" math="0" shadow="0">
      <root>
        <mxCell id="0" />
        <mxCell id="1" parent="0" />
        <mxCell id="sDW55G6QNDqWRGrlrUci-6" value="" style="whiteSpace=wrap;html=1;" vertex="1" parent="1">
          <mxGeometry x="160" y="-1110" width="530" height="810" as="geometry" />
        </mxCell>
        <mxCell id="sDW55G6QNDqWRGrlrUci-3" value="" style="swimlane;startSize=0;" vertex="1" parent="1">
          <mxGeometry x="160" y="-1110" width="190" height="25" as="geometry" />
        </mxCell>
        <mxCell id="sDW55G6QNDqWRGrlrUci-4" value="&amp;nbsp;Graphe_CareerLink" style="text;html=1;align=center;verticalAlign=middle;resizable=0;points=[];autosize=1;strokeColor=none;fillColor=none;" vertex="1" parent="sDW55G6QNDqWRGrlrUci-3">
          <mxGeometry x="31" y="-2.5" width="130" height="30" as="geometry" />
        </mxCell>
        <mxCell id="sDW55G6QNDqWRGrlrUci-7" value="Vu Home Page" style="ellipse;whiteSpace=wrap;html=1;" vertex="1" parent="1">
          <mxGeometry x="326" y="-1050" width="175" height="50" as="geometry" />
        </mxCell>
        <mxCell id="sDW55G6QNDqWRGrlrUci-8" value="utilisateur" style="shape=umlActor;verticalLabelPosition=bottom;verticalAlign=top;html=1;outlineConnect=0;" vertex="1" parent="1">
          <mxGeometry x="90" y="-1045" width="30" height="60" as="geometry" />
        </mxCell>
        <mxCell id="sDW55G6QNDqWRGrlrUci-10" value="Login" style="ellipse;whiteSpace=wrap;html=1;" vertex="1" parent="1">
          <mxGeometry x="460" y="-970" width="170" height="50" as="geometry" />
        </mxCell>
        <mxCell id="sDW55G6QNDqWRGrlrUci-11" value="" style="endArrow=classic;html=1;rounded=0;exitX=1;exitY=0.3333333333333333;exitDx=0;exitDy=0;exitPerimeter=0;entryX=0;entryY=0.5;entryDx=0;entryDy=0;" edge="1" parent="1" source="sDW55G6QNDqWRGrlrUci-8" target="sDW55G6QNDqWRGrlrUci-7">
          <mxGeometry width="50" height="50" relative="1" as="geometry">
            <mxPoint x="290" y="-960" as="sourcePoint" />
            <mxPoint x="340" y="-1010" as="targetPoint" />
          </mxGeometry>
        </mxCell>
        <mxCell id="sDW55G6QNDqWRGrlrUci-19" value="" style="endArrow=none;dashed=1;html=1;dashPattern=1 3;strokeWidth=2;rounded=0;entryX=0.298;entryY=0.066;entryDx=0;entryDy=0;entryPerimeter=0;exitX=0.761;exitY=0.93;exitDx=0;exitDy=0;exitPerimeter=0;startArrow=blockThin;startFill=0;" edge="1" parent="1" source="sDW55G6QNDqWRGrlrUci-7" target="sDW55G6QNDqWRGrlrUci-10">
          <mxGeometry width="50" height="50" relative="1" as="geometry">
            <mxPoint x="290" y="-850" as="sourcePoint" />
            <mxPoint x="340" y="-900" as="targetPoint" />
          </mxGeometry>
        </mxCell>
        <mxCell id="sDW55G6QNDqWRGrlrUci-20" value="extend" style="edgeLabel;html=1;align=center;verticalAlign=middle;resizable=0;points=[];" vertex="1" connectable="0" parent="sDW55G6QNDqWRGrlrUci-19">
          <mxGeometry x="0.0392" y="-2" relative="1" as="geometry">
            <mxPoint as="offset" />
          </mxGeometry>
        </mxCell>
        <mxCell id="sDW55G6QNDqWRGrlrUci-21" value="" style="endArrow=classic;html=1;rounded=0;exitX=0.5;exitY=0;exitDx=0;exitDy=0;exitPerimeter=0;" edge="1" parent="1" target="sDW55G6QNDqWRGrlrUci-8">
          <mxGeometry width="50" height="50" relative="1" as="geometry">
            <mxPoint x="105" y="-850" as="sourcePoint" />
            <mxPoint x="340" y="-870" as="targetPoint" />
          </mxGeometry>
        </mxCell>
        <mxCell id="sDW55G6QNDqWRGrlrUci-38" value="&lt;span style=&quot;box-sizing: border-box; border: 0px solid; --tw-border-spacing-x: 0; --tw-border-spacing-y: 0; --tw-translate-x: 0; --tw-translate-y: 0; --tw-rotate: 0; --tw-skew-x: 0; --tw-skew-y: 0; --tw-scale-x: 1; --tw-scale-y: 1; --tw-pan-x: ; --tw-pan-y: ; --tw-pinch-zoom: ; --tw-scroll-snap-strictness: proximity; --tw-gradient-from-position: ; --tw-gradient-via-position: ; --tw-gradient-to-position: ; --tw-ordinal: ; --tw-slashed-zero: ; --tw-numeric-figure: ; --tw-numeric-spacing: ; --tw-numeric-fraction: ; --tw-ring-inset: ; --tw-ring-offset-width: 0px; --tw-ring-offset-color: #fff; --tw-ring-color: rgba(59,130,246,.5); --tw-ring-offset-shadow: 0 0 #0000; --tw-ring-shadow: 0 0 #0000; --tw-shadow: 0 0 #0000; --tw-shadow-colored: 0 0 #0000; --tw-blur: ; --tw-brightness: ; --tw-contrast: ; --tw-grayscale: ; --tw-hue-rotate: ; --tw-invert: ; --tw-saturate: ; --tw-sepia: ; --tw-drop-shadow: ; --tw-backdrop-blur: ; --tw-backdrop-brightness: ; --tw-backdrop-contrast: ; --tw-backdrop-grayscale: ; --tw-backdrop-hue-rotate: ; --tw-backdrop-invert: ; --tw-backdrop-opacity: ; --tw-backdrop-saturate: ; --tw-backdrop-sepia: ; --tw-contain-size: ; --tw-contain-layout: ; --tw-contain-paint: ; --tw-contain-style: ; font-weight: bolder; font-family: &amp;quot;Nunito Sans&amp;quot;, sans-serif; font-size: 14px; text-align: start; white-space: pre-wrap; background-color: rgb(255, 255, 255);&quot;&gt;Recruteurs&lt;/span&gt;" style="shape=umlActor;verticalLabelPosition=bottom;verticalAlign=top;html=1;outlineConnect=0;" vertex="1" parent="1">
          <mxGeometry x="90" y="-850" width="30" height="60" as="geometry" />
        </mxCell>
        <mxCell id="sDW55G6QNDqWRGrlrUci-39" value="&lt;div style=&quot;text-align: start;&quot;&gt;&lt;span style=&quot;color: light-dark(rgb(0, 0, 0), rgb(255, 255, 255)); font-size: 14px; white-space-collapse: preserve; background-color: rgb(255, 255, 255);&quot;&gt;&lt;font face=&quot;Nunito Sans, sans-serif&quot;&gt;&lt;b&gt;GESTION&lt;/b&gt;&lt;/font&gt;&lt;/span&gt;&lt;/div&gt;" style="ellipse;whiteSpace=wrap;html=1;" vertex="1" parent="1">
          <mxGeometry x="329" y="-860" width="170" height="50" as="geometry" />
        </mxCell>
        <mxCell id="sDW55G6QNDqWRGrlrUci-40" value="&lt;span style=&quot;font-family: &amp;quot;Nunito Sans&amp;quot;, sans-serif; font-size: 14px; font-weight: 700; text-align: start; white-space-collapse: preserve; background-color: rgb(255, 255, 255);&quot;&gt;ajout plus unformation&lt;/span&gt;" style="ellipse;whiteSpace=wrap;html=1;" vertex="1" parent="1">
          <mxGeometry x="337.5" y="-761" width="155" height="50" as="geometry" />
        </mxCell>
        <mxCell id="sDW55G6QNDqWRGrlrUci-41" value="&lt;span style=&quot;font-family: &amp;quot;Nunito Sans&amp;quot;, sans-serif; font-size: 14px; text-align: left; background-color: rgb(255, 255, 255);&quot;&gt;catégorie et tage&lt;/span&gt;" style="ellipse;whiteSpace=wrap;html=1;" vertex="1" parent="1">
          <mxGeometry x="520" y="-761" width="149" height="50" as="geometry" />
        </mxCell>
        <mxCell id="sDW55G6QNDqWRGrlrUci-42" value="&lt;span style=&quot;box-sizing: border-box; border: 0px solid; --tw-border-spacing-x: 0; --tw-border-spacing-y: 0; --tw-translate-x: 0; --tw-translate-y: 0; --tw-rotate: 0; --tw-skew-x: 0; --tw-skew-y: 0; --tw-scale-x: 1; --tw-scale-y: 1; --tw-pan-x: ; --tw-pan-y: ; --tw-pinch-zoom: ; --tw-scroll-snap-strictness: proximity; --tw-gradient-from-position: ; --tw-gradient-via-position: ; --tw-gradient-to-position: ; --tw-ordinal: ; --tw-slashed-zero: ; --tw-numeric-figure: ; --tw-numeric-spacing: ; --tw-numeric-fraction: ; --tw-ring-inset: ; --tw-ring-offset-width: 0px; --tw-ring-offset-color: #fff; --tw-ring-color: rgba(59,130,246,.5); --tw-ring-offset-shadow: 0 0 #0000; --tw-ring-shadow: 0 0 #0000; --tw-shadow: 0 0 #0000; --tw-shadow-colored: 0 0 #0000; --tw-blur: ; --tw-brightness: ; --tw-contrast: ; --tw-grayscale: ; --tw-hue-rotate: ; --tw-invert: ; --tw-saturate: ; --tw-sepia: ; --tw-drop-shadow: ; --tw-backdrop-blur: ; --tw-backdrop-brightness: ; --tw-backdrop-contrast: ; --tw-backdrop-grayscale: ; --tw-backdrop-hue-rotate: ; --tw-backdrop-invert: ; --tw-backdrop-opacity: ; --tw-backdrop-saturate: ; --tw-backdrop-sepia: ; --tw-contain-size: ; --tw-contain-layout: ; --tw-contain-paint: ; --tw-contain-style: ; font-weight: bolder; font-family: &amp;quot;Nunito Sans&amp;quot;, sans-serif; font-size: 14px; text-align: start; white-space-collapse: preserve; background-color: rgb(255, 255, 255);&quot;&gt;Offres d’Emploi&lt;/span&gt;" style="ellipse;whiteSpace=wrap;html=1;" vertex="1" parent="1">
          <mxGeometry x="160" y="-761" width="155" height="50" as="geometry" />
        </mxCell>
        <mxCell id="sDW55G6QNDqWRGrlrUci-43" value="" style="endArrow=none;dashed=1;html=1;dashPattern=1 3;strokeWidth=2;rounded=0;entryX=0.5;entryY=0;entryDx=0;entryDy=0;startArrow=classicThin;startFill=0;exitX=0;exitY=1;exitDx=0;exitDy=0;" edge="1" source="sDW55G6QNDqWRGrlrUci-39" target="sDW55G6QNDqWRGrlrUci-42" parent="1">
          <mxGeometry width="50" height="50" relative="1" as="geometry">
            <mxPoint x="380" y="-800" as="sourcePoint" />
            <mxPoint x="430" y="-850" as="targetPoint" />
          </mxGeometry>
        </mxCell>
        <mxCell id="sDW55G6QNDqWRGrlrUci-44" value="Extend" style="edgeLabel;html=1;align=center;verticalAlign=middle;resizable=0;points=[];" vertex="1" connectable="0" parent="sDW55G6QNDqWRGrlrUci-43">
          <mxGeometry x="0.1271" y="3" relative="1" as="geometry">
            <mxPoint as="offset" />
          </mxGeometry>
        </mxCell>
        <mxCell id="sDW55G6QNDqWRGrlrUci-45" value="" style="endArrow=none;dashed=1;html=1;dashPattern=1 3;strokeWidth=2;rounded=0;startArrow=classicThin;startFill=0;exitX=0.5;exitY=1;exitDx=0;exitDy=0;" edge="1" parent="1">
          <mxGeometry width="50" height="50" relative="1" as="geometry">
            <mxPoint x="413.0000000000001" y="-810" as="sourcePoint" />
            <mxPoint x="414" y="-761" as="targetPoint" />
          </mxGeometry>
        </mxCell>
        <mxCell id="sDW55G6QNDqWRGrlrUci-46" value="Extend" style="edgeLabel;html=1;align=center;verticalAlign=middle;resizable=0;points=[];" vertex="1" connectable="0" parent="sDW55G6QNDqWRGrlrUci-45">
          <mxGeometry x="0.2273" y="3" relative="1" as="geometry">
            <mxPoint as="offset" />
          </mxGeometry>
        </mxCell>
        <mxCell id="sDW55G6QNDqWRGrlrUci-47" value="" style="endArrow=none;dashed=1;html=1;dashPattern=1 3;strokeWidth=2;rounded=0;entryX=0.5;entryY=0;entryDx=0;entryDy=0;startArrow=classicThin;startFill=0;" edge="1" source="sDW55G6QNDqWRGrlrUci-39" target="sDW55G6QNDqWRGrlrUci-41" parent="1">
          <mxGeometry width="50" height="50" relative="1" as="geometry">
            <mxPoint x="340" y="-780" as="sourcePoint" />
            <mxPoint x="258" y="-741" as="targetPoint" />
          </mxGeometry>
        </mxCell>
        <mxCell id="sDW55G6QNDqWRGrlrUci-48" value="extend" style="edgeLabel;html=1;align=center;verticalAlign=middle;resizable=0;points=[];" vertex="1" connectable="0" parent="sDW55G6QNDqWRGrlrUci-47">
          <mxGeometry x="0.0886" y="-1" relative="1" as="geometry">
            <mxPoint as="offset" />
          </mxGeometry>
        </mxCell>
        <mxCell id="sDW55G6QNDqWRGrlrUci-49" value="" style="endArrow=classic;html=1;rounded=0;exitX=1;exitY=0.3333333333333333;exitDx=0;exitDy=0;exitPerimeter=0;entryX=0;entryY=0.5;entryDx=0;entryDy=0;" edge="1" source="sDW55G6QNDqWRGrlrUci-38" target="sDW55G6QNDqWRGrlrUci-39" parent="1">
          <mxGeometry width="50" height="50" relative="1" as="geometry">
            <mxPoint x="240" y="-790" as="sourcePoint" />
            <mxPoint x="290" y="-840" as="targetPoint" />
          </mxGeometry>
        </mxCell>
        <mxCell id="sDW55G6QNDqWRGrlrUci-50" value="administrator" style="shape=umlActor;verticalLabelPosition=bottom;verticalAlign=top;html=1;outlineConnect=0;" vertex="1" parent="1">
          <mxGeometry x="90" y="-540" width="30" height="60" as="geometry" />
        </mxCell>
        <mxCell id="sDW55G6QNDqWRGrlrUci-51" value="&lt;div style=&quot;text-align: start;&quot;&gt;&lt;span style=&quot;color: light-dark(rgb(0, 0, 0), rgb(255, 255, 255)); font-size: 14px; white-space-collapse: preserve; background-color: rgb(255, 255, 255);&quot;&gt;&lt;font face=&quot;Nunito Sans, sans-serif&quot;&gt;&lt;b&gt;GESTION&lt;/b&gt;&lt;/font&gt;&lt;/span&gt;&lt;/div&gt;" style="ellipse;whiteSpace=wrap;html=1;" vertex="1" parent="1">
          <mxGeometry x="329" y="-550" width="170" height="50" as="geometry" />
        </mxCell>
        <mxCell id="sDW55G6QNDqWRGrlrUci-52" value="&lt;span style=&quot;box-sizing: border-box; border: 0px solid; --tw-border-spacing-x: 0; --tw-border-spacing-y: 0; --tw-translate-x: 0; --tw-translate-y: 0; --tw-rotate: 0; --tw-skew-x: 0; --tw-skew-y: 0; --tw-scale-x: 1; --tw-scale-y: 1; --tw-pan-x: ; --tw-pan-y: ; --tw-pinch-zoom: ; --tw-scroll-snap-strictness: proximity; --tw-gradient-from-position: ; --tw-gradient-via-position: ; --tw-gradient-to-position: ; --tw-ordinal: ; --tw-slashed-zero: ; --tw-numeric-figure: ; --tw-numeric-spacing: ; --tw-numeric-fraction: ; --tw-ring-inset: ; --tw-ring-offset-width: 0px; --tw-ring-offset-color: #fff; --tw-ring-color: rgba(59,130,246,.5); --tw-ring-offset-shadow: 0 0 #0000; --tw-ring-shadow: 0 0 #0000; --tw-shadow: 0 0 #0000; --tw-shadow-colored: 0 0 #0000; --tw-blur: ; --tw-brightness: ; --tw-contrast: ; --tw-grayscale: ; --tw-hue-rotate: ; --tw-invert: ; --tw-saturate: ; --tw-sepia: ; --tw-drop-shadow: ; --tw-backdrop-blur: ; --tw-backdrop-brightness: ; --tw-backdrop-contrast: ; --tw-backdrop-grayscale: ; --tw-backdrop-hue-rotate: ; --tw-backdrop-invert: ; --tw-backdrop-opacity: ; --tw-backdrop-saturate: ; --tw-backdrop-sepia: ; --tw-contain-size: ; --tw-contain-layout: ; --tw-contain-paint: ; --tw-contain-style: ; font-weight: bolder; font-family: &amp;quot;Nunito Sans&amp;quot;, sans-serif; font-size: 14px; text-align: start; white-space-collapse: preserve; background-color: rgb(255, 255, 255);&quot;&gt;Tags&lt;/span&gt;" style="ellipse;whiteSpace=wrap;html=1;" vertex="1" parent="1">
          <mxGeometry x="337.5" y="-451" width="155" height="50" as="geometry" />
        </mxCell>
        <mxCell id="sDW55G6QNDqWRGrlrUci-53" value="&lt;span style=&quot;box-sizing: border-box; border: 0px solid; --tw-border-spacing-x: 0; --tw-border-spacing-y: 0; --tw-translate-x: 0; --tw-translate-y: 0; --tw-rotate: 0; --tw-skew-x: 0; --tw-skew-y: 0; --tw-scale-x: 1; --tw-scale-y: 1; --tw-pan-x: ; --tw-pan-y: ; --tw-pinch-zoom: ; --tw-scroll-snap-strictness: proximity; --tw-gradient-from-position: ; --tw-gradient-via-position: ; --tw-gradient-to-position: ; --tw-ordinal: ; --tw-slashed-zero: ; --tw-numeric-figure: ; --tw-numeric-spacing: ; --tw-numeric-fraction: ; --tw-ring-inset: ; --tw-ring-offset-width: 0px; --tw-ring-offset-color: #fff; --tw-ring-color: rgba(59,130,246,.5); --tw-ring-offset-shadow: 0 0 #0000; --tw-ring-shadow: 0 0 #0000; --tw-shadow: 0 0 #0000; --tw-shadow-colored: 0 0 #0000; --tw-blur: ; --tw-brightness: ; --tw-contrast: ; --tw-grayscale: ; --tw-hue-rotate: ; --tw-invert: ; --tw-saturate: ; --tw-sepia: ; --tw-drop-shadow: ; --tw-backdrop-blur: ; --tw-backdrop-brightness: ; --tw-backdrop-contrast: ; --tw-backdrop-grayscale: ; --tw-backdrop-hue-rotate: ; --tw-backdrop-invert: ; --tw-backdrop-opacity: ; --tw-backdrop-saturate: ; --tw-backdrop-sepia: ; --tw-contain-size: ; --tw-contain-layout: ; --tw-contain-paint: ; --tw-contain-style: ; font-weight: bolder; font-family: &amp;quot;Nunito Sans&amp;quot;, sans-serif; font-size: 14px; text-align: start; white-space-collapse: preserve; background-color: rgb(255, 255, 255);&quot;&gt;Recruteurs&lt;/span&gt;" style="ellipse;whiteSpace=wrap;html=1;" vertex="1" parent="1">
          <mxGeometry x="520" y="-451" width="149" height="50" as="geometry" />
        </mxCell>
        <mxCell id="sDW55G6QNDqWRGrlrUci-54" value="&lt;span style=&quot;box-sizing: border-box; border: 0px solid; --tw-border-spacing-x: 0; --tw-border-spacing-y: 0; --tw-translate-x: 0; --tw-translate-y: 0; --tw-rotate: 0; --tw-skew-x: 0; --tw-skew-y: 0; --tw-scale-x: 1; --tw-scale-y: 1; --tw-pan-x: ; --tw-pan-y: ; --tw-pinch-zoom: ; --tw-scroll-snap-strictness: proximity; --tw-gradient-from-position: ; --tw-gradient-via-position: ; --tw-gradient-to-position: ; --tw-ordinal: ; --tw-slashed-zero: ; --tw-numeric-figure: ; --tw-numeric-spacing: ; --tw-numeric-fraction: ; --tw-ring-inset: ; --tw-ring-offset-width: 0px; --tw-ring-offset-color: #fff; --tw-ring-color: rgba(59,130,246,.5); --tw-ring-offset-shadow: 0 0 #0000; --tw-ring-shadow: 0 0 #0000; --tw-shadow: 0 0 #0000; --tw-shadow-colored: 0 0 #0000; --tw-blur: ; --tw-brightness: ; --tw-contrast: ; --tw-grayscale: ; --tw-hue-rotate: ; --tw-invert: ; --tw-saturate: ; --tw-sepia: ; --tw-drop-shadow: ; --tw-backdrop-blur: ; --tw-backdrop-brightness: ; --tw-backdrop-contrast: ; --tw-backdrop-grayscale: ; --tw-backdrop-hue-rotate: ; --tw-backdrop-invert: ; --tw-backdrop-opacity: ; --tw-backdrop-saturate: ; --tw-backdrop-sepia: ; --tw-contain-size: ; --tw-contain-layout: ; --tw-contain-paint: ; --tw-contain-style: ; font-weight: bolder; font-family: &amp;quot;Nunito Sans&amp;quot;, sans-serif; font-size: 14px; text-align: start; white-space-collapse: preserve; background-color: rgb(255, 255, 255);&quot;&gt;Catégories&lt;/span&gt;" style="ellipse;whiteSpace=wrap;html=1;" vertex="1" parent="1">
          <mxGeometry x="160" y="-451" width="155" height="50" as="geometry" />
        </mxCell>
        <mxCell id="sDW55G6QNDqWRGrlrUci-55" value="" style="endArrow=none;dashed=1;html=1;dashPattern=1 3;strokeWidth=2;rounded=0;entryX=0.5;entryY=0;entryDx=0;entryDy=0;startArrow=classicThin;startFill=0;exitX=0;exitY=1;exitDx=0;exitDy=0;" edge="1" parent="1" source="sDW55G6QNDqWRGrlrUci-51" target="sDW55G6QNDqWRGrlrUci-54">
          <mxGeometry width="50" height="50" relative="1" as="geometry">
            <mxPoint x="380" y="-490" as="sourcePoint" />
            <mxPoint x="430" y="-540" as="targetPoint" />
          </mxGeometry>
        </mxCell>
        <mxCell id="sDW55G6QNDqWRGrlrUci-56" value="Extend" style="edgeLabel;html=1;align=center;verticalAlign=middle;resizable=0;points=[];" vertex="1" connectable="0" parent="sDW55G6QNDqWRGrlrUci-55">
          <mxGeometry x="0.1271" y="3" relative="1" as="geometry">
            <mxPoint as="offset" />
          </mxGeometry>
        </mxCell>
        <mxCell id="sDW55G6QNDqWRGrlrUci-57" value="" style="endArrow=none;dashed=1;html=1;dashPattern=1 3;strokeWidth=2;rounded=0;startArrow=classicThin;startFill=0;exitX=0.5;exitY=1;exitDx=0;exitDy=0;" edge="1" parent="1">
          <mxGeometry width="50" height="50" relative="1" as="geometry">
            <mxPoint x="413.0000000000001" y="-500" as="sourcePoint" />
            <mxPoint x="414" y="-451" as="targetPoint" />
          </mxGeometry>
        </mxCell>
        <mxCell id="sDW55G6QNDqWRGrlrUci-58" value="Extend" style="edgeLabel;html=1;align=center;verticalAlign=middle;resizable=0;points=[];" vertex="1" connectable="0" parent="sDW55G6QNDqWRGrlrUci-57">
          <mxGeometry x="0.2273" y="3" relative="1" as="geometry">
            <mxPoint as="offset" />
          </mxGeometry>
        </mxCell>
        <mxCell id="sDW55G6QNDqWRGrlrUci-59" value="" style="endArrow=none;dashed=1;html=1;dashPattern=1 3;strokeWidth=2;rounded=0;entryX=0.5;entryY=0;entryDx=0;entryDy=0;startArrow=classicThin;startFill=0;" edge="1" parent="1" source="sDW55G6QNDqWRGrlrUci-51" target="sDW55G6QNDqWRGrlrUci-53">
          <mxGeometry width="50" height="50" relative="1" as="geometry">
            <mxPoint x="340" y="-470" as="sourcePoint" />
            <mxPoint x="258" y="-431" as="targetPoint" />
          </mxGeometry>
        </mxCell>
        <mxCell id="sDW55G6QNDqWRGrlrUci-60" value="extend" style="edgeLabel;html=1;align=center;verticalAlign=middle;resizable=0;points=[];" vertex="1" connectable="0" parent="sDW55G6QNDqWRGrlrUci-59">
          <mxGeometry x="0.0886" y="-1" relative="1" as="geometry">
            <mxPoint as="offset" />
          </mxGeometry>
        </mxCell>
        <mxCell id="sDW55G6QNDqWRGrlrUci-61" value="" style="endArrow=classic;html=1;rounded=0;exitX=1;exitY=0.3333333333333333;exitDx=0;exitDy=0;exitPerimeter=0;entryX=0;entryY=0.5;entryDx=0;entryDy=0;" edge="1" parent="1" source="sDW55G6QNDqWRGrlrUci-50" target="sDW55G6QNDqWRGrlrUci-51">
          <mxGeometry width="50" height="50" relative="1" as="geometry">
            <mxPoint x="240" y="-480" as="sourcePoint" />
            <mxPoint x="290" y="-530" as="targetPoint" />
          </mxGeometry>
        </mxCell>
        <mxCell id="sDW55G6QNDqWRGrlrUci-62" value="CRUD" style="ellipse;whiteSpace=wrap;html=1;" vertex="1" parent="1">
          <mxGeometry x="172.5" y="-680" width="130" height="50" as="geometry" />
        </mxCell>
        <mxCell id="sDW55G6QNDqWRGrlrUci-64" value="CRUD" style="ellipse;whiteSpace=wrap;html=1;" vertex="1" parent="1">
          <mxGeometry x="349" y="-680" width="130" height="50" as="geometry" />
        </mxCell>
        <mxCell id="sDW55G6QNDqWRGrlrUci-65" value="Taxonomie" style="ellipse;whiteSpace=wrap;html=1;" vertex="1" parent="1">
          <mxGeometry x="529.5" y="-680" width="130" height="50" as="geometry" />
        </mxCell>
        <mxCell id="sDW55G6QNDqWRGrlrUci-66" value="" style="endArrow=classic;dashed=1;html=1;dashPattern=1 3;strokeWidth=2;rounded=0;entryX=0.5;entryY=1;entryDx=0;entryDy=0;exitX=0.5;exitY=0;exitDx=0;exitDy=0;endFill=0;" edge="1" parent="1" source="sDW55G6QNDqWRGrlrUci-62" target="sDW55G6QNDqWRGrlrUci-42">
          <mxGeometry width="50" height="50" relative="1" as="geometry">
            <mxPoint x="220" y="-660" as="sourcePoint" />
            <mxPoint x="270" y="-710" as="targetPoint" />
          </mxGeometry>
        </mxCell>
        <mxCell id="sDW55G6QNDqWRGrlrUci-68" value="" style="endArrow=classic;dashed=1;html=1;dashPattern=1 3;strokeWidth=2;rounded=0;exitX=0.5;exitY=0;exitDx=0;exitDy=0;endFill=0;" edge="1" parent="1" source="sDW55G6QNDqWRGrlrUci-65">
          <mxGeometry width="50" height="50" relative="1" as="geometry">
            <mxPoint x="594.36" y="-689.5" as="sourcePoint" />
            <mxPoint x="594" y="-710" as="targetPoint" />
          </mxGeometry>
        </mxCell>
        <mxCell id="sDW55G6QNDqWRGrlrUci-69" value="" style="endArrow=classic;dashed=1;html=1;dashPattern=1 3;strokeWidth=2;rounded=0;entryX=0.486;entryY=0.978;entryDx=0;entryDy=0;exitX=0.486;exitY=0.004;exitDx=0;exitDy=0;exitPerimeter=0;entryPerimeter=0;endFill=0;" edge="1" parent="1" source="sDW55G6QNDqWRGrlrUci-64" target="sDW55G6QNDqWRGrlrUci-40">
          <mxGeometry width="50" height="50" relative="1" as="geometry">
            <mxPoint x="268" y="-650" as="sourcePoint" />
            <mxPoint x="268" y="-681" as="targetPoint" />
          </mxGeometry>
        </mxCell>
        <mxCell id="sDW55G6QNDqWRGrlrUci-70" value="" style="endArrow=classic;html=1;rounded=0;exitX=0.5;exitY=0;exitDx=0;exitDy=0;exitPerimeter=0;" edge="1" parent="1" source="sDW55G6QNDqWRGrlrUci-50">
          <mxGeometry width="50" height="50" relative="1" as="geometry">
            <mxPoint x="100" y="-655" as="sourcePoint" />
            <mxPoint x="100" y="-790" as="targetPoint" />
          </mxGeometry>
        </mxCell>
      </root>
    </mxGraphModel>
  </diagram>
</mxfile>
